# xmcd
#
# Track frame offsets:
# 182
# 12937
# 31540
# 46647
# 58517
# 80245
# 97182
# 112287
# 126640
# 141225
#
# Disc length: 2147 seconds
#
#
# Revision: 2
# Processed by: cddbd v1.5.1PL0 Copyright (c) Steve Scherf et al.
# Submitted via: FreeRIP 2.942 
#
DISCID=8b08610a
DTITLE=The Robert Cray Band - Too Many Cooks
DYEAR=1989
DGENRE=Blues
TTITLE0=Too Many Cooks
TTITLE1=The Score
TTITLE2=When The Welfare Turns Its Back On You
TTITLE3=That's What I'll Do
TTITLE4=I'd Rather Be A Wino
TTITLE5=Who's Been Talkin'
TTITLE6=Sleeping In The Ground
TTITLE7=I'm Gonna Forget About You
TTITLE8=Nice As A Fool Can Be
TTITLE9=If You're Thinkin' What I'm Thinkin'
EXTD=robert cray- vocal and guitar\ncurtis salgado- harmonica and vocal\nrichard cousins-bass - dave olson-drums
EXTT0=
EXTT1=
EXTT2=
EXTT3=
EXTT4=
EXTT5=
EXTT6=
EXTT7=
EXTT8=
EXTT9=
PLAYORDER=
